<?xml version="1.0" encoding="utf-8"?>
<!-- Generator: Adobe Illustrator 21.0.2, SVG Export Plug-In . SVG Version: 6.00 Build 0)  -->
<svg version="1.1" id="Layer_1" xmlns="http://www.w3.org/2000/svg" xmlns:xlink="http://www.w3.org/1999/xlink" x="0px" y="0px"
	 viewBox="0 0 156.2 59.7" style="enable-background:new 0 0 156.2 59.7;" xml:space="preserve">
<style type="text/css">
	.st0{fill:#FFFFFF;}
</style>
<g>
	<g>
		<path class="st0" d="M55.4,20.7c2.8,0,5.5-1.8,6-4c0.5-2.2-1.3-3.9-4.1-3.9c-2.8,0-5.5,1.8-6,3.9C50.7,18.9,52.6,20.7,55.4,20.7z"
			/>
		<path class="st0" d="M56.3,16.8"/>
	</g>
	<g>
		<polygon class="st0" points="18.9,13.3 27.7,13.3 34.3,30.8 38.2,13.3 47.1,13.3 39.7,46.9 31,46.9 24.4,29.3 20.5,46.9 
			11.5,46.9 		"/>
		<polygon class="st0" points="50.6,22.4 59.6,22.4 54.2,46.9 45.2,46.9 		"/>
		<path class="st0" d="M119.9,22.4l-5.4,24.6h8.9l3.2-14.5c0.4-1.6,1.7-2.5,3.6-2.5c2,0,2.5,1.2,2.1,2.9l-3.1,14.1h8.9l4.2-18.9
			c0.4-1.8-0.2-6.1-5.5-6.1c-5.3,0-8,3-8.8,4.1l0.8-3.7H119.9z"/>
		<path class="st0" d="M102.2,21.4c-7.6,0-13.9,4.1-15.8,13.1c-1.7,8.1,3.4,13.1,10.4,13.1c8.3,0,14.1-5,15.8-13.1
			C114.3,26.4,109.2,21.4,102.2,21.4z M98,41.2c-1.6,0-2.6-1.3-2.3-2.9l1.7-7.6c0.4-1.6,2-2.9,3.6-2.9c1.6,0,2.6,1.3,2.3,2.9
			l-1.7,7.6C101.2,39.9,99.6,41.2,98,41.2z"/>
		<path class="st0" d="M140.3,45c0-1.1,0.9-1.8,1.9-1.8c1,0,1.9,0.8,1.9,1.8c0,1.1-0.9,1.8-1.9,1.8C141.2,46.9,140.3,46.1,140.3,45z
			 M142.2,46.6c0.8,0,1.5-0.7,1.5-1.5c0-0.9-0.7-1.5-1.5-1.5c-0.8,0-1.5,0.7-1.5,1.5C140.7,45.9,141.4,46.6,142.2,46.6z M141.8,46.1
			h-0.3V44h0.8c0.5,0,0.7,0.2,0.7,0.6c0,0.4-0.2,0.5-0.5,0.6l0.6,0.9h-0.4l-0.6-0.9h-0.4V46.1z M142.2,44.9c0.3,0,0.5,0,0.5-0.3
			c0-0.3-0.2-0.3-0.5-0.3h-0.4v0.7H142.2z"/>
		<polygon class="st0" points="66.7,13.3 75.7,13.3 71.6,31.7 79.3,22.4 89.2,22.4 79.8,33.7 83.7,46.9 75,46.9 71.1,34 68.2,46.9 
			59.3,46.9 		"/>
	</g>
</g>
</svg>
