<?xml version="1.0" encoding="utf-8"?>
<!-- Generator: Adobe Illustrator 21.0.2, SVG Export Plug-In . SVG Version: 6.00 Build 0)  -->
<svg version="1.1" id="Layer_1" xmlns="http://www.w3.org/2000/svg" xmlns:xlink="http://www.w3.org/1999/xlink" x="0px" y="0px"
	 viewBox="0 0 603.2 129.8" style="enable-background:new 0 0 603.2 129.8;" xml:space="preserve">
<style type="text/css">
	.st0{fill:#FFFFFF;}
	.st1{fill:#FFDD00;}
</style>
<g>
	<path class="st0" d="M362.7,29.8h9.2v24.4h13.6v8h-22.8V29.8z"/>
	<path class="st0" d="M392.7,29.8h23.4v7.4H402v4.9h13.1v7.4H402v5.4h14.2v7.4h-23.4V29.8z"/>
	<path class="st0" d="M442.9,57.4h-11.2l-1.4,4.9h-9l10.3-32.4h11.3l10.3,32.4h-9L442.9,57.4z M433.8,50.2h7l-3.6-12.9L433.8,50.2z"
		/>
	<path class="st0" d="M473,53.6h-5.4v8.7h-9.2V29.8h15.5c9,0,11.9,3.5,11.9,9.7v4.4c0,3.7-1.1,5.8-3.9,7.8l7.1,10.6h-10.3L473,53.6z
		 M473.6,37.2h-6v9.1h6c2.3,0,3.2-0.9,3.2-2.8v-3.6C476.8,38.1,475.9,37.2,473.6,37.2z"/>
	<path class="st0" d="M501.6,42.5v19.8h-8.7V29.8h11l10.8,19.8V29.8h8.7v32.4h-11L501.6,42.5z"/>
</g>
<g>
	<path class="st0" d="M362.7,70.3h22.7v7.1h-13.8v4.8h12.7v7.1h-12.7v5.3h13.8v7.1h-22.7V70.3z"/>
	<path class="st0" d="M404.6,92.3l-6.2,9.4h-9.7l10.6-15.9l-10.2-15.5h9.6l5.9,9.2l5.9-9.2h9.6l-10.3,15.5l10.7,15.9h-9.6
		L404.6,92.3z"/>
	<path class="st0" d="M433.6,93.7v8h-8.9V70.3h15c8.8,0,11.5,3.4,11.5,9.4v4.6c0,6.1-3.3,9.4-12,9.4H433.6z M439.3,77.5h-5.7v9.1
		h5.7c2.2,0,3.1-0.9,3.1-2.7v-3.7C442.3,78.3,441.5,77.5,439.3,77.5z"/>
	<path class="st0" d="M455.4,70.3h8.9V94h13.2v7.7h-22.1V70.3z"/>
	<path class="st0" d="M480.3,92.1V79.9c0-5.4,4-10.2,13.8-10.2s13.8,4.8,13.8,10.2v12.2c0,5.4-4,10.2-13.8,10.2
		S480.3,97.5,480.3,92.1z M494.1,77.4c-3.4,0-4.9,1.3-4.9,3.6v10c0,2.2,1.5,3.6,4.9,3.6c3.4,0,4.9-1.3,4.9-3.6V81
		C499,78.7,497.5,77.4,494.1,77.4z"/>
	<path class="st0" d="M526.9,93.3h-5.2v8.4h-8.9V70.3h15c8.8,0,11.5,3.4,11.5,9.4v4.2c0,3.6-1,5.6-3.7,7.6l6.9,10.3h-10L526.9,93.3z
		 M527.5,77.5h-5.8v8.8h5.8c2.2,0,3.1-0.9,3.1-2.7v-3.5C530.6,78.3,529.8,77.5,527.5,77.5z"/>
	<path class="st0" d="M546.1,70.3h22.7v7.1H555v4.8h12.7v7.1H555v5.3h13.8v7.1h-22.7V70.3z"/>
</g>
<g>
	<g>
		<path class="st0" d="M128.9,44.2c6.1,0,11.9-3.8,13-8.6c1.1-4.7-2.9-8.6-8.9-8.6c-6.1,0-11.9,3.8-13,8.6
			C118.8,40.3,122.8,44.2,128.9,44.2z"/>
		<path class="st0" d="M130.9,35.6"/>
	</g>
	<g>
		<polygon class="st0" points="49.9,28.1 68.8,28.1 83.2,66 91.6,28.1 111,28.1 94.9,101 76.1,101 61.7,62.7 53.2,101 33.8,101 		
			"/>
		<polygon class="st0" points="118.7,47.7 138.1,47.7 126.3,101 106.9,101 		"/>
		<path class="st0" d="M268.9,47.7L257.1,101h19.4l6.9-31.4c0.8-3.5,3.6-5.5,7.9-5.5c4.2,0,5.5,2.6,4.6,6.3l-6.8,30.5h19.4l9.1-41
			c0.8-4-0.5-13.2-12-13.2c-11.5,0-17.3,6.5-19.1,8.8l1.8-8H268.9z"/>
		<path class="st0" d="M230.5,45.7c-16.5,0-30.2,8.9-34.2,28.4c-3.6,17.6,7.3,28.4,22.7,28.4c18,0,30.6-10.8,34.2-28.4
			C256.7,56.5,245.8,45.7,230.5,45.7z M221.4,88.7c-3.5,0-5.7-2.8-4.9-6.3l3.7-16.5c0.8-3.5,4.2-6.3,7.7-6.3c3.5,0,5.7,2.8,4.9,6.3
			l-3.7,16.5C228.3,85.8,224.9,88.7,221.4,88.7z"/>
		<path class="st0" d="M313.2,96.9c0-2.3,1.9-4,4-4c2.2,0,4,1.7,4,4c0,2.3-1.9,4-4,4C315.1,100.9,313.2,99.2,313.2,96.9z
			 M317.3,100.2c1.8,0,3.2-1.4,3.2-3.3c0-1.9-1.4-3.3-3.2-3.3c-1.8,0-3.2,1.4-3.2,3.3C314,98.8,315.5,100.2,317.3,100.2z
			 M316.4,99.2h-0.7v-4.6h1.7c1.1,0,1.6,0.4,1.6,1.3c0,0.8-0.5,1.2-1.2,1.3l1.3,2h-0.8l-1.2-2h-0.8V99.2z M317.3,96.6
			c0.6,0,1.1,0,1.1-0.7c0-0.6-0.5-0.7-1-0.7h-1v1.4H317.3z"/>
		<polygon class="st0" points="153.6,28.1 173,28.1 164.1,68.1 180.9,47.7 202.2,47.7 181.8,72.4 190.4,101 171.4,101 163,73 
			156.9,101 137.5,101 		"/>
	</g>
</g>
<rect x="341.7" y="16.3" class="st0" width="2.7" height="98"/>
<g>
	<path class="st1" d="M555.7,62.9c-0.9-1.1-2.3-2.7-2.3-2.7c-3.1,2.4-6.6,3.2-9.5,3.2c-7.3,0-12.3-4.7-12.3-10.7
		c0-4.5,2.6-7.3,7-9.5c-2-2.8-3.2-4.8-3.2-7.5c0-4.6,3-7.5,9.3-7.5c5.5,0,8.9,3.2,8.9,7c0,3.3-2,6.6-6.4,9.1
		c0.9,0.9,3.5,3.7,6.4,6.9c1.4-2.4,2.5-5.5,3-8l5.4,1.4c-0.8,4-2.5,8.3-4.3,11.1c0,0,3.5,3.9,6.6,7.2H555.7z M542.1,47.3
		c-2.3,1.4-3.1,3.2-3.1,5.3c0,2.8,1.8,4.7,5.1,4.7c2,0,3.7-0.6,5.3-1.6C546.3,52.2,543.1,48.4,542.1,47.3z M544.8,33.1
		c-2.1,0-3,1.1-3,2.8c0,1.6,1.3,3.6,2.7,5c2.5-1.4,3.3-3.5,3.3-5C547.9,34.3,546.9,33.1,544.8,33.1z"/>
</g>
</svg>
