<?xml version="1.0" encoding="utf-8"?>
<!-- Generator: Adobe Illustrator 21.0.2, SVG Export Plug-In . SVG Version: 6.00 Build 0)  -->
<svg version="1.1" id="Layer_1" xmlns="http://www.w3.org/2000/svg" xmlns:xlink="http://www.w3.org/1999/xlink" x="0px" y="0px"
	 viewBox="0 0 157.7 140" style="enable-background:new 0 0 157.7 140;" xml:space="preserve">
<style type="text/css">
	.st0{fill:#FFDD00;}
	.st1{fill:url(#SVGID_1_);}
	.st2{fill:url(#SVGID_2_);}
	.st3{fill:url(#SVGID_3_);}
	.st4{fill:url(#SVGID_4_);}
	.st5{fill:url(#SVGID_5_);}
	.st6{fill:url(#SVGID_6_);}
	.st7{fill:url(#SVGID_7_);}
	.st8{fill:url(#SVGID_8_);}
	.st9{fill:url(#SVGID_9_);}
	.st10{fill:url(#SVGID_10_);}
	.st11{fill:#FFF6D2;}
	.st12{fill:#999999;}
</style>
<g>
	
		<rect x="0.6" y="0.5" transform="matrix(8.188034e-03 -1 1 8.188034e-03 -0.4665 139.4258)" class="st0" width="138.9" height="138.9"/>
	<g>
		<g>
			
				<linearGradient id="SVGID_1_" gradientUnits="userSpaceOnUse" x1="212.6027" y1="692.7533" x2="215.0555" y2="693.4784" gradientTransform="matrix(77.3546 0.6334 0.6334 -77.3546 -16965.4141 53605.5859)">
				<stop  offset="0" style="stop-color:#FFE02F"/>
				<stop  offset="0.34" style="stop-color:#FFFFFF"/>
				<stop  offset="0.66" style="stop-color:#FFFFFF"/>
				<stop  offset="1" style="stop-color:#FFE02F"/>
			</linearGradient>
			<path class="st1" d="M105.5,99.2c-30.9,5.2-61.9,12.2-92.8,21c-4.2,1.2-8.4,2.5-12.6,3.7L0,134.8c5.2-1.4,10.4-2.8,15.7-4.3
				C46.6,121.7,76.6,111.2,105.5,99.2z"/>
		</g>
		<g>
			
				<linearGradient id="SVGID_2_" gradientUnits="userSpaceOnUse" x1="212.8136" y1="692.9778" x2="215.1684" y2="693.7433" gradientTransform="matrix(77.3546 0.6334 0.6334 -77.3546 -16965.4141 53605.5859)">
				<stop  offset="0" style="stop-color:#FFE02F"/>
				<stop  offset="0.355" style="stop-color:#FFFFFF"/>
				<stop  offset="0.645" style="stop-color:#FFFFFF"/>
				<stop  offset="1" style="stop-color:#FFE02F"/>
			</linearGradient>
			<path class="st2" d="M114.5,78.8c-29.7,6.1-59.4,13.7-89,23.1c-8.5,2.7-16.9,5.5-25.2,8.4l-0.1,9.2c9.4-2.6,18.8-5.4,28.2-8.4
				C58,101.7,86.7,90.9,114.5,78.8z"/>
		</g>
		<g>
			
				<linearGradient id="SVGID_3_" gradientUnits="userSpaceOnUse" x1="213.0114" y1="693.1898" x2="215.2761" y2="693.9971" gradientTransform="matrix(77.3546 0.6334 0.6334 -77.3546 -16965.4141 53605.5859)">
				<stop  offset="0" style="stop-color:#FFE02F"/>
				<stop  offset="0.37" style="stop-color:#FFFFFF"/>
				<stop  offset="0.63" style="stop-color:#FFFFFF"/>
				<stop  offset="1" style="stop-color:#FFE02F"/>
			</linearGradient>
			<path class="st3" d="M123,59.4c-28.6,6.8-57.1,15.1-85.6,25c-12.5,4.4-24.9,9-37.1,13.8l-0.1,7.5c13.4-4,26.7-8.2,40.1-12.9
				C68.8,83,96.4,71.8,123,59.4z"/>
		</g>
		<g>
			
				<linearGradient id="SVGID_4_" gradientUnits="userSpaceOnUse" x1="213.1992" y1="693.3898" x2="215.3792" y2="694.2398" gradientTransform="matrix(77.3546 0.6334 0.6334 -77.3546 -16965.4141 53605.5859)">
				<stop  offset="0" style="stop-color:#FFE02F"/>
				<stop  offset="0.385" style="stop-color:#FFFFFF"/>
				<stop  offset="0.615" style="stop-color:#FFFFFF"/>
				<stop  offset="1" style="stop-color:#FFE02F"/>
			</linearGradient>
			<path class="st4" d="M131.2,40.8c-27.5,7.6-55,16.5-82.4,26.9c-16.4,6.3-32.6,13-48.4,20v5.5c17.2-5.4,34.3-11.3,51.4-17.8
				C79.1,65,105.6,53.4,131.2,40.8z"/>
		</g>
		<g>
			
				<linearGradient id="SVGID_5_" gradientUnits="userSpaceOnUse" x1="213.3793" y1="693.5807" x2="215.4794" y2="694.4743" gradientTransform="matrix(77.3546 0.6334 0.6334 -77.3546 -16965.4141 53605.5859)">
				<stop  offset="0" style="stop-color:#FFE02F"/>
				<stop  offset="0.4" style="stop-color:#FFFFFF"/>
				<stop  offset="0.6" style="stop-color:#FFFFFF"/>
				<stop  offset="1" style="stop-color:#FFE02F"/>
			</linearGradient>
			<path class="st5" d="M139.1,22.8c-26.5,8.3-53,17.9-79.3,28.9c-20.3,8.4-40,17.5-59.3,27.1V82C21.2,75,42,67.3,62.7,58.7
				C89,47.7,114.5,35.7,139.1,22.8z"/>
		</g>
		<g>
			
				<linearGradient id="SVGID_6_" gradientUnits="userSpaceOnUse" x1="213.5515" y1="693.7638" x2="215.5765" y2="694.7025" gradientTransform="matrix(77.3546 0.6334 0.6334 -77.3546 -16965.4141 53605.5859)">
				<stop  offset="0" style="stop-color:#FFE140"/>
				<stop  offset="0.415" style="stop-color:#FFFFFF"/>
				<stop  offset="0.585" style="stop-color:#FFFFFF"/>
				<stop  offset="1" style="stop-color:#FFE02F"/>
			</linearGradient>
			<path class="st6" d="M139.9,9.1V7.8c-23.3,8.5-46.5,17.9-69.6,28.4C46.3,47.1,23,58.8,0.6,71.3v0.8c24.3-8.7,48.5-18.6,72.6-29.5
				C96.1,32.1,118.4,21,139.9,9.1z"/>
		</g>
		<g>
			
				<linearGradient id="SVGID_7_" gradientUnits="userSpaceOnUse" x1="213.7155" y1="693.9395" x2="215.6706" y2="694.9253" gradientTransform="matrix(77.3546 0.6334 0.6334 -77.3546 -16965.4141 53605.5859)">
				<stop  offset="0" style="stop-color:#FFE24F"/>
				<stop  offset="0.43" style="stop-color:#FFFFFF"/>
				<stop  offset="0.57" style="stop-color:#FFFFFF"/>
				<stop  offset="1" style="stop-color:#FFE02F"/>
			</linearGradient>
			<path class="st7" d="M9.5,59.9C34.2,50,58.8,39,83.3,26.9c16.7-8.3,33-16.9,49-25.8L124,1c-14.5,6.4-29,13.1-43.5,20.2
				C56,33.4,32.3,46.3,9.5,59.9z"/>
		</g>
		<g>
			
				<linearGradient id="SVGID_8_" gradientUnits="userSpaceOnUse" x1="213.8757" y1="694.109" x2="215.7637" y2="695.1434" gradientTransform="matrix(77.3546 0.6334 0.6334 -77.3546 -16965.4141 53605.5859)">
				<stop  offset="0" style="stop-color:#FFE45E"/>
				<stop  offset="0.445" style="stop-color:#FFFFFF"/>
				<stop  offset="0.555" style="stop-color:#FFFFFF"/>
				<stop  offset="1" style="stop-color:#FFE02F"/>
			</linearGradient>
			<path class="st8" d="M21.9,46.7c23.8-10.7,47.6-22.3,71.2-35c6.6-3.5,13.1-7.1,19.6-10.8l-11.3-0.1c-3.7,1.9-7.4,3.9-11,5.9
				C66.8,19.4,43.9,32.8,21.9,46.7z"/>
		</g>
		<g>
			
				<linearGradient id="SVGID_9_" gradientUnits="userSpaceOnUse" x1="214.0341" y1="694.276" x2="215.8531" y2="695.3582" gradientTransform="matrix(77.3546 0.6334 0.6334 -77.3546 -16965.4141 53605.5859)">
				<stop  offset="0" style="stop-color:#FFE56B"/>
				<stop  offset="0.46" style="stop-color:#FFFFFF"/>
				<stop  offset="0.54" style="stop-color:#FFFFFF"/>
				<stop  offset="1" style="stop-color:#FFE02F"/>
			</linearGradient>
			<path class="st9" d="M95.6,0.8l-9.7-0.1c-17.7,10.7-35,21.7-51.8,33C54.7,23.5,75.2,12.5,95.6,0.8z"/>
		</g>
		<g>
			
				<linearGradient id="SVGID_10_" gradientUnits="userSpaceOnUse" x1="214.1943" y1="694.4439" x2="215.9459" y2="695.575" gradientTransform="matrix(77.3546 0.6334 0.6334 -77.3546 -16965.4141 53605.5859)">
				<stop  offset="0" style="stop-color:#FFE776"/>
				<stop  offset="0.475" style="stop-color:#FFFFFF"/>
				<stop  offset="0.525" style="stop-color:#FFFFFF"/>
				<stop  offset="1" style="stop-color:#FFE02F"/>
			</linearGradient>
			<path class="st10" d="M81.3,0.7h-6.1C65.5,7.3,55.9,14,46.5,20.8C58.1,14.2,69.7,7.6,81.3,0.7z"/>
		</g>
	</g>
	<path class="st11" d="M50.4,134.2l7.8-33.7l9.2,0.1l-4.2,17.9l7.5-8.9l10.3,0.1l-9.4,11.2l3.7,13.6l-9.2-0.1l-3.7-12.9l-3.1,12.8
		L50.4,134.2z M17.1,117l6.4,17l8.9,0.1l7.9-33.7l-9.1-0.1l-4,17.2L21,100.3l-9.2-0.1L4,133.9l9.3,0.1
		C14.2,128.5,15.7,122.8,17.1,117z M45.9,134.2l5.7-24.8l-9.1-0.1l-5.7,24.8L45.9,134.2z M43.1,103.9c0,0.8,0.2,3.5,5.1,3.6
		c4.1,0,5.7-2.6,5.8-4.6c0-1.3-1.1-3.6-5.1-3.7C45.1,99.2,43.1,101.7,43.1,103.9z M130.4,109.7c-3.9-1.2-8.7,0.7-11.1,4
		c0.2-1,0.5-2.2,0.8-3.6l-9.2-0.1l-5.6,24.6l9.2,0.1l3.2-14c0.6-2.6,2.7-3.7,4.5-3.2c0.8,0.2,1.9,0.8,1.5,3l-3.2,14.2l9.1,0.1
		l4.3-19C134.6,111.7,131.2,110,130.4,109.7z M99.4,132.4c4-3.2,6-8.7,6-13.9c0-5-4.2-9.7-11.5-9.8c-14-0.1-16.1,10.8-16.5,12.7
		c-1.1,5,0,11.6,6.6,13.3C88.2,136,95,135.9,99.4,132.4z M89.2,117.9c0.7-1.8,2.5-2.2,3.3-2.2c2,0,2.5,1.2,2.4,2.3
		c-0.5,3.1-1.6,7-2,8.3l0,0c-0.4,1.4-1.7,2.2-3.3,2.1c-1.5,0-2.5-1-2.3-2.2C87.5,124.2,88.8,118.9,89.2,117.9z"/>
</g>
<path d="M50.2,134.7l7.8-34l9.3,0.1l-4.2,18.1l7.6-9l10.4,0.1l-9.4,11.3l3.7,13.7l-9.3-0.1l-3.7-13l-3.1,12.9L50.2,134.7z
	 M16.7,117.3l6.4,17.2l8.9,0.1l8-34l-9.2-0.1l-4,17.3l-6.3-17.4l-9.3-0.1l-7.9,34l9.4,0.1C13.8,129,15.3,123.2,16.7,117.3z
	 M45.8,134.7l5.8-25l-9.2-0.1l-5.8,25L45.8,134.7z M42.9,104.2c0,0.8,0.2,3.6,5.2,3.6c4.2,0,5.8-2.6,5.8-4.6c0-1.3-1.1-3.7-5.2-3.7
	C44.9,99.4,42.9,101.9,42.9,104.2z M130.9,110c-3.9-1.2-8.8,0.7-11.2,4c0.2-1,0.5-2.2,0.8-3.6l-9.3-0.1l-5.6,24.8l9.2,0.1l3.2-14.1
	c0.6-2.6,2.7-3.7,4.5-3.2c0.8,0.2,1.9,0.8,1.5,3l-3.3,14.3l9.1,0.1l4.3-19.1C135.2,112.1,131.7,110.3,130.9,110z M99.6,132.9
	c4-3.2,6.1-8.8,6-14c0-5-4.2-9.8-11.6-9.9c-14.1-0.1-16.2,10.8-16.6,12.8c-1.1,5.1,0,11.6,6.6,13.4
	C88.4,136.5,95.2,136.4,99.6,132.9z M89.4,118.3c0.7-1.8,2.5-2.2,3.3-2.2c2,0,2.6,1.2,2.4,2.3c-0.5,3.1-1.6,7.1-2,8.3l0,0
	c-0.5,1.4-1.8,2.2-3.3,2.2c-1.6,0-2.5-1-2.3-2.2C87.6,124.6,89,119.3,89.4,118.3z"/>
<g>
	<path class="st12" d="M148.1,126.5c1,0,2.1,0.3,3.1,0.8c1,0.5,1.8,1.3,2.3,2.3c0.6,1,0.8,2,0.8,3.1c0,1.1-0.3,2.1-0.8,3.1
		c-0.5,1-1.3,1.8-2.3,2.3c-1,0.5-2,0.8-3.1,0.8s-2.1-0.3-3.1-0.8c-1-0.5-1.8-1.3-2.3-2.3c-0.6-1-0.8-2-0.8-3.1
		c0-1.1,0.3-2.1,0.8-3.1c0.6-1,1.3-1.8,2.3-2.3C146,126.7,147.1,126.5,148.1,126.5z M148.1,127.5c-0.9,0-1.7,0.2-2.6,0.7
		c-0.8,0.4-1.5,1.1-1.9,1.9s-0.7,1.7-0.7,2.6c0,0.9,0.2,1.8,0.7,2.6c0.5,0.8,1.1,1.5,1.9,1.9c0.8,0.5,1.7,0.7,2.6,0.7
		c0.9,0,1.8-0.2,2.6-0.7c0.8-0.5,1.5-1.1,1.9-1.9c0.5-0.8,0.7-1.7,0.7-2.6c0-0.9-0.2-1.8-0.7-2.6c-0.5-0.8-1.1-1.5-1.9-1.9
		C149.8,127.7,149,127.5,148.1,127.5z M145.4,136.2v-6.7h2.3c0.8,0,1.4,0.1,1.7,0.2c0.4,0.1,0.6,0.3,0.8,0.6c0.2,0.3,0.3,0.6,0.3,1
		c0,0.5-0.2,0.9-0.5,1.3c-0.3,0.4-0.8,0.6-1.4,0.6c0.2,0.1,0.4,0.2,0.6,0.4c0.3,0.3,0.6,0.7,1,1.3l0.8,1.3h-1.3l-0.6-1.1
		c-0.5-0.8-0.8-1.4-1.1-1.6c-0.2-0.2-0.5-0.2-0.9-0.2h-0.6v2.8H145.4z M146.5,132.4h1.3c0.6,0,1.1-0.1,1.3-0.3s0.3-0.4,0.3-0.7
		c0-0.2-0.1-0.4-0.2-0.5s-0.3-0.3-0.5-0.4c-0.2-0.1-0.6-0.1-1.1-0.1h-1.2V132.4z"/>
</g>
</svg>
