<?xml version="1.0" encoding="utf-8"?>
<!-- Generator: Adobe Illustrator 22.1.0, SVG Export Plug-In . SVG Version: 6.00 Build 0)  -->
<svg version="1.1" id="Layer_1" xmlns="http://www.w3.org/2000/svg" xmlns:xlink="http://www.w3.org/1999/xlink" x="0px" y="0px"
	 viewBox="0 0 564 262" style="enable-background:new 0 0 564 262;" xml:space="preserve">
<g>
	<path d="M122.5,231.9L296,26.5V5H12.3v25.2h162.6L1.5,235.7v21.4h297.8v-25.2L122.5,231.9L122.5,231.9z M260.3,30.2L90.1,231.9h-53
		L207.4,30.2H260.3z"/>
	<path d="M487.8,112.9c-8.7-4.6-19-7-29.9-7c-31.3,0-46.5,28.9-47,61.1l0.5-0.2c11.3-11.1,22.9-15.4,36.9-15.4
		c32.5,0,50.6,22.9,50.6,53c0,34.7-23.4,55.6-54,55.6c-47,0-56.6-42.4-56.6-80.7c0-45.5,14.9-93.2,68.2-93.2
		c11.6,0,28.7,2.6,34.7,5.3L487.8,112.9z M445.2,171.2c-20,0-31.3,14.9-31.3,33.7c0,15.9,9.9,35.4,29.6,35.4
		c20.2,0,29.9-17.3,29.9-35.4C473.4,189.2,464.2,171.2,445.2,171.2"/>
	<path d="M535.2,88.1v2.7h-7.7V111h-3.1V90.8h-7.7v-2.7C516.7,88.1,535.2,88.1,535.2,88.1z"/>
	<path d="M538,88.1h4.4l6.6,19.4l6.6-19.4h4.4V111h-3V97.5c0-0.5,0-1.2,0-2.3c0-1.1,0-2.2,0-3.5l-6.5,19.3h-3.1l-6.6-19.3v0.7
		c0,0.6,0,1.4,0,2.6c0,1.1,0.1,2,0.1,2.5V111h-3L538,88.1L538,88.1z"/>
</g>
</svg>
