<?xml version="1.0" encoding="utf-8"?>
<!-- Generator: Adobe Illustrator 22.1.0, SVG Export Plug-In . SVG Version: 6.00 Build 0)  -->
<svg version="1.1" id="Layer_1" xmlns="http://www.w3.org/2000/svg" xmlns:xlink="http://www.w3.org/1999/xlink" x="0px" y="0px"
	 viewBox="0 0 571 262" style="enable-background:new 0 0 571 262;" xml:space="preserve">
<g>
	<path d="M124.4,231.4L296,28.1V6.9H15.4v24.9h160.8L4.7,235.1v21.2h294.6v-24.9L124.4,231.4L124.4,231.4z M260.8,31.8L92.3,231.4
		H39.9L208.4,31.8H260.8z"/>
	<polygon points="491.9,109.6 430.4,256.3 404.2,256.3 467.6,109.6 386.6,109.6 386.6,90 491.9,90 	"/>
	<path d="M532.7,89.1v2.7H525v20h-3.1v-20h-7.6v-2.7H532.7z"/>
	<path d="M535.4,89.1h4.4l6.5,19.2l6.5-19.2h4.4v22.7h-2.9V98.4c0-0.5,0-1.2,0-2.3c0-1.1,0-2.2,0-3.4l-6.5,19.1h-3l-6.5-19.1v0.7
		c0,0.6,0,1.4,0,2.5s0.1,2,0.1,2.5v13.4h-2.9L535.4,89.1L535.4,89.1z"/>
</g>
</svg>
